<?xml version="1.0" standalone="no"?>
<!DOCTYPE svg PUBLIC "-//W3C//DTD SVG 20010904//EN"
 "http://www.w3.org/TR/2001/REC-SVG-20010904/DTD/svg10.dtd">
<svg version="1.0" xmlns="http://www.w3.org/2000/svg"
 width="300.000000pt" height="109.000000pt" viewBox="0 0 300.000000 109.000000"
 preserveAspectRatio="xMidYMid meet">
<metadata>
Created by potrace 1.10, written by Peter Selinger 2001-2011
</metadata>
<g transform="translate(0.000000,109.000000) scale(0.100000,-0.100000)"
fill="#000000" stroke="none">
<path d="M568 593 c-3 -172 -4 -188 -20 -187 -10 1 -18 -2 -18 -7 0 -4 47 -10
104 -11 l103 -3 -28 -60 c-31 -66 -33 -75 -21 -75 5 0 15 18 22 40 l13 40 67
0 67 0 18 -40 c10 -22 22 -40 27 -40 12 0 11 5 -22 70 -16 33 -30 62 -30 65 0
3 48 5 106 5 64 0 103 4 99 10 -3 5 -12 7 -20 3 -13 -4 -15 22 -15 186 l0 191
-225 0 -225 0 -2 -187z m440 -10 l-3 -178 -212 -3 -213 -2 0 180 0 180 215 0
215 0 -2 -177z m-169 -212 c10 -17 6 -19 -40 -23 -54 -3 -63 1 -53 26 9 24 80
22 93 -3z"/>
<path d="M670 705 c-7 -8 -17 -12 -22 -8 -6 3 -9 0 -6 -7 7 -22 22 -21 36 1
16 25 10 36 -8 14z"/>
<path d="M768 683 c34 -2 90 -2 125 0 34 2 6 3 -63 3 -69 0 -97 -1 -62 -3z"/>
<path d="M640 621 c0 -27 19 -36 37 -18 18 18 9 37 -18 37 -12 0 -19 -7 -19
-19z"/>
<path d="M720 620 c0 -6 45 -10 115 -10 70 0 115 4 115 10 0 6 -45 10 -115 10
-70 0 -115 -4 -115 -10z"/>
<path d="M640 550 c0 -16 5 -21 23 -18 12 2 22 10 22 18 0 8 -10 16 -22 18
-18 3 -23 -2 -23 -18z"/>
<path d="M715 550 c4 -6 55 -10 121 -10 69 0 114 4 114 10 0 6 -47 10 -121 10
-77 0 -118 -4 -114 -10z"/>
<path d="M651 501 c-17 -11 -7 -41 13 -41 22 0 30 20 15 36 -9 8 -19 10 -28 5z"/>
<path d="M712 485 c9 -9 238 -11 238 -2 0 4 -55 7 -122 7 -67 0 -119 -2 -116
-5z"/>
<path d="M1274 696 c-17 -8 -42 -29 -55 -47 -22 -31 -24 -46 -28 -156 -3 -117
-2 -123 21 -146 19 -19 35 -24 90 -25 73 -2 111 8 146 40 l22 21 23 -20 c32
-30 62 -43 97 -43 37 0 90 21 109 43 12 15 16 15 43 -8 45 -38 67 -40 198 -23
8 1 24 -1 36 -5 36 -12 64 25 64 86 0 95 40 111 53 23 7 -45 38 -83 84 -102
40 -17 137 -18 163 -2 15 9 24 9 44 -1 16 -9 45 -12 82 -9 49 4 62 10 86 37
33 37 35 64 8 108 -19 31 -19 34 -2 63 17 31 17 31 -11 56 -33 28 -80 31 -134
9 -19 -8 -37 -15 -39 -15 -2 0 -4 17 -4 38 0 47 -24 82 -55 82 -26 0 -55 -33
-55 -62 0 -11 -10 -20 -27 -23 -16 -4 -43 -13 -61 -21 -42 -18 -56 -18 -72 2
-17 20 -83 11 -122 -17 -33 -23 -33 -23 -66 1 -15 11 -51 23 -79 27 -49 5 -54
4 -84 -27 -27 -26 -36 -30 -48 -21 -95 69 -143 69 -216 0 l-30 -28 3 42 c3 52
-13 84 -57 114 -38 26 -81 29 -127 9z m123 -42 c32 -20 40 -70 15 -103 l-19
-26 23 -18 c32 -24 34 -97 3 -126 -22 -20 -126 -34 -136 -18 -13 21 8 37 50
37 47 0 67 13 67 44 0 31 -30 56 -67 56 -26 0 -33 4 -33 20 0 15 7 20 29 20
36 0 53 20 49 57 -3 25 -8 28 -43 31 -59 5 -65 -10 -65 -156 0 -120 -1 -123
-21 -120 -21 3 -21 8 -20 133 2 125 3 131 28 157 37 39 89 44 140 12z m941
-141 l-3 -156 -75 2 c-85 3 -104 10 -125 51 -31 60 -6 135 55 160 41 17 84 4
88 -27 3 -20 1 -21 -26 -11 -56 21 -105 -36 -82 -96 11 -30 50 -48 93 -44 l30
3 -1 138 -1 137 25 0 25 0 -3 -157z m-704 53 c45 -19 66 -52 66 -102 0 -84
-81 -136 -157 -100 -33 16 -63 64 -63 102 0 33 32 83 63 98 40 19 49 20 91 2z
m262 -10 c15 -12 20 -31 25 -103 3 -48 3 -91 0 -94 -3 -3 -39 -3 -79 0 -79 7
-102 22 -102 67 0 54 121 90 128 39 2 -18 -2 -20 -38 -17 -30 3 -41 0 -46 -13
-10 -25 10 -38 57 -39 l43 -1 -1 57 c-1 31 -4 61 -8 67 -3 6 -31 11 -61 11
-47 0 -54 2 -54 20 0 18 7 20 58 20 34 0 66 -6 78 -14z m204 -5 c0 -16 -8 -20
-42 -23 l-43 -3 -3 -88 c-3 -84 -4 -88 -25 -85 -20 3 -21 7 -19 93 4 107 16
125 88 125 37 0 44 -3 44 -19z m440 -1 c0 -18 -7 -20 -56 -20 -46 0 -55 -3
-52 -17 2 -9 21 -22 42 -30 73 -25 93 -60 59 -101 -14 -16 -32 -21 -83 -24
-59 -3 -65 -1 -65 17 0 17 6 20 43 17 54 -3 89 13 71 34 -6 7 -28 18 -49 24
-45 12 -62 31 -62 67 0 38 27 53 94 53 51 0 58 -2 58 -20z m-286 -72 c12 -20
-8 -49 -29 -42 -20 8 -27 34 -14 51 14 16 29 13 43 -9z"/>
<path d="M1549 521 c-48 -39 -19 -131 43 -131 65 0 94 88 42 129 -33 26 -55
26 -85 2z m55 -27 c30 -12 14 -64 -19 -64 -3 0 -9 9 -15 21 -9 15 -8 24 1 35
13 16 12 16 33 8z"/>
</g>
</svg>
