 <svg  version="1.0" xmlns="http://www.w3.org/2000/svg"  width="300.000000pt" height="290.000000pt" viewBox="0 0 300.000000 290.000000"  preserveAspectRatio="xMidYMid meet">  <g transform="translate(0.000000,290.000000) scale(0.100000,-0.100000)" fill="#ffffff" stroke="none"> <path d="M2892 2785 c-1 -66 -3 -646 -3 -1288 0 -699 -4 -1178 -9 -1192 -7 -18 -17 -25 -35 -25 -15 0 -24 -4 -20 -10 3 -5 23 -10 43 -10 l37 0 -3 1017 c-2 1153 -6 1684 -10 1508z"/> <path d="M140 1450 l0 -1320 1320 0 1320 0 0 1320 0 1320 -1320 0 -1320 0 0 -1320z m118 57 c1 -813 5 -1237 12 -1237 7 0 10 423 10 1240 l0 1240 1240 0 1240 0 0 -1226 c0 -1216 -3 -1342 -33 -1361 -12 -8 -2539 -4 -2547 3 -10 10 -7 2538 3 2560 7 16 17 21 41 20 l31 -2 3 -1237z"/> <path d="M530 1781 c0 -463 4 -752 9 -756 12 -7 20 37 24 130 3 59 3 55 5 -26 l2 -97 35 -31 36 -31 -111 0 c-72 0 -109 4 -105 10 3 6 23 10 43 10 20 0 43 4 50 9 18 11 -18 21 -80 21 l-48 0 0 -41 c0 -33 3 -40 16 -35 9 3 198 6 420 6 268 0 403 3 399 10 -3 6 -18 11 -33 11 -15 1 -5 5 23 9 27 3 60 4 73 2 23 -5 23 -5 4 -26 -11 -11 -27 -36 -36 -53 -9 -18 -19 -33 -22 -33 -2 0 0 9 6 19 13 25 13 54 -1 46 -5 -4 -32 -53 -58 -108 -27 -56 -70 -147 -96 -202 -26 -55 -60 -128 -76 -163 l-28 -62 32 -13 c31 -13 32 -13 48 22 49 105 88 192 110 243 l24 58 260 0 260 0 80 -169 80 -168 33 15 c18 9 31 18 29 21 -10 21 -120 249 -147 306 -101 217 -101 216 -118 211 -11 -3 -26 6 -40 25 l-24 29 59 -1 c32 -1 50 -3 41 -6 -10 -2 -18 -9 -18 -14 0 -5 166 -10 410 -10 226 -1 415 -2 422 -3 7 -1 13 14 13 37 l2 37 -51 0 c-66 0 -103 -10 -84 -21 7 -5 30 -9 51 -9 20 0 37 -4 37 -10 0 -6 -48 -9 -127 -9 -71 1 -111 5 -91 8 21 3 48 15 60 26 13 11 27 18 32 17 5 -2 13 3 17 10 5 7 9 347 9 756 l0 742 -930 0 -930 0 0 -749z m69 690 c-29 -29 -29 -30 -30 -158 0 -70 0 -171 1 -223 1 -52 -1 -92 -4 -89 -5 5 -9 223 -7 422 l1 77 34 0 34 0 -29 -29z m1759 16 c6 -7 7 -18 3 -25 -5 -9 -14 -5 -31 13 -23 24 -23 25 -3 25 11 0 25 -6 31 -13z m-35 -749 l2 -718 -860 -2 -860 -3 2 720 c2 396 3 720 3 720 0 0 385 0 855 0 l855 0 3 -717z m-1756 155 c-2 -21 -4 -6 -4 32 0 39 2 55 4 38 2 -18 2 -50 0 -70z m0 -210 c-2 -32 -3 -6 -3 57 0 63 1 89 3 58 2 -32 2 -84 0 -115z m0 -265 c-2 -24 -4 -7 -4 37 0 44 2 63 4 43 2 -21 2 -57 0 -80z m0 -160 c-2 -18 -4 -6 -4 27 0 33 2 48 4 33 2 -15 2 -42 0 -60z m1421 -285 c-32 -2 -86 -2 -120 0 -35 2 -9 3 57 3 66 0 94 -1 63 -3z m-364 -69 c12 -21 30 -58 39 -81 l17 -43 -220 0 c-121 0 -220 2 -220 6 0 3 9 22 19 42 11 20 27 55 36 77 l16 40 145 -1 146 -1 22 -39z m-403 -72 c-10 -20 11 -82 29 -82 23 0 8 -16 -17 -18 -48 -4 -67 -28 -122 -153 -30 -68 -60 -133 -68 -144 -30 -45 -12 18 31 108 24 51 67 140 94 200 28 59 54 107 57 107 3 0 1 -8 -4 -18z m519 -64 c16 -35 30 -68 30 -75 0 -7 5 -13 10 -13 6 0 10 -5 10 -11 0 -6 21 -54 46 -107 60 -127 66 -142 53 -142 -6 0 -16 14 -22 30 -6 17 -15 30 -19 30 -4 0 -8 5 -8 11 0 6 -23 59 -52 116 -50 100 -59 111 -111 127 -16 5 -16 7 3 26 20 20 24 32 21 58 -4 26 9 9 39 -50z"/> <path d="M953 2236 l-50 -65 -26 27 -27 27 -27 -28 -27 -27 54 -55 c30 -30 57 -55 60 -55 3 0 39 43 79 96 l73 95 -23 25 c-12 13 -26 24 -30 24 -3 0 -29 -29 -56 -64z m-23 -101 c-16 -20 -34 -19 -51 2 -12 14 -12 16 1 11 8 -3 24 -2 35 2 26 10 31 4 15 -15z"/> <path d="M1130 2150 l0 -40 485 0 485 0 0 40 0 40 -485 0 -485 0 0 -40z"/> <path d="M872 1967 c-33 -19 -54 -54 -54 -93 0 -74 72 -126 143 -105 68 21 98 89 67 156 -22 49 -104 71 -156 42z m113 -50 c22 -31 18 -73 -7 -97 -46 -43 -118 -10 -118 54 0 67 87 97 125 43z"/> <path d="M1130 1883 l0 -38 485 0 485 0 0 38 0 37 -485 0 -485 0 0 -37z"/> <path d="M861 1681 c-43 -41 -54 -74 -37 -115 22 -53 53 -76 104 -76 37 0 50 6 78 34 49 49 48 99 -3 149 -48 48 -96 51 -142 8z m104 -31 c17 0 21 -6 30 -47 5 -27 2 -37 -19 -58 -31 -31 -62 -32 -93 -3 -28 26 -32 78 -5 78 13 0 14 2 4 9 -18 11 9 34 31 25 8 -3 19 0 23 7 6 10 9 10 12 1 2 -7 10 -12 17 -12z"/> <path d="M1130 1605 l0 -35 485 0 485 0 0 35 0 35 -485 0 -485 0 0 -35z"/> <path d="M875 1419 c-36 -21 -55 -53 -55 -96 0 -34 5 -46 31 -67 36 -30 93 -35 139 -11 88 46 53 171 -50 181 -25 3 -54 -1 -65 -7z m108 -51 c21 -24 22 -47 3 -74 -11 -15 -25 -19 -57 -19 -28 1 -43 6 -42 13 2 6 -4 9 -12 6 -12 -5 -15 2 -15 28 0 70 77 98 123 46z"/> <path d="M1612 1363 l-483 -3 3 -33 3 -32 483 -3 482 -2 0 40 c0 22 -1 39 -2 38 -2 -2 -220 -4 -486 -5z"/> </g> </svg> 