 <svg  version="1.0" xmlns="http://www.w3.org/2000/svg"  width="300.000000pt" height="119.000000pt" viewBox="0 0 300.000000 119.000000"  preserveAspectRatio="xMidYMid meet">  <g transform="translate(0.000000,119.000000) scale(0.100000,-0.100000)" fill="#3a3fcf" stroke="none"> <path d="M504 964 c-12 -3 -34 -18 -49 -34 l-29 -30 1 -324 c0 -250 3 -329 13 -341 11 -13 57 -15 339 -15 l326 0 32 37 33 38 0 315 c0 256 -3 320 -14 335 -13 19 -31 20 -323 22 -169 1 -318 -1 -329 -3z m636 -356 c0 -218 -3 -329 -10 -322 -6 6 -11 133 -12 319 l-3 310 -310 0 -310 0 308 -2 307 -3 0 -330 0 -330 -327 0 -328 0 0 330 c0 308 1 330 18 330 9 0 17 7 17 15 0 13 43 15 325 15 l325 0 0 -332z"/> <path d="M550 660 c0 -185 -1 -190 -21 -190 -11 0 -17 -4 -14 -10 3 -6 50 -9 109 -7 l104 2 -34 -67 c-19 -37 -30 -70 -24 -73 5 -3 18 15 29 40 l20 45 64 0 65 0 19 -47 c10 -26 22 -43 26 -37 3 6 -7 39 -23 73 -17 35 -30 64 -30 64 0 1 47 1 105 0 64 -2 105 1 105 7 0 6 -9 10 -20 10 -19 0 -20 7 -20 190 l0 190 -230 0 -230 0 0 -190z m450 -10 l0 -180 -215 0 -215 0 0 180 0 180 215 0 215 0 0 -180z m-171 -217 c10 -23 9 -23 -44 -23 -30 0 -55 3 -55 6 0 22 22 39 53 40 28 0 38 -5 46 -23z"/> <path d="M661 776 c-7 -8 -19 -12 -27 -9 -18 7 -18 -11 0 -26 12 -10 18 -7 32 14 18 28 14 45 -5 21z"/> <path d="M700 750 c0 -6 47 -10 120 -10 73 0 120 4 120 10 0 6 -47 10 -120 10 -73 0 -120 -4 -120 -10z"/> <path d="M627 697 c-8 -21 8 -39 29 -35 27 5 25 42 -2 46 -12 2 -24 -3 -27 -11z"/> <path d="M700 690 c0 -6 47 -10 120 -10 73 0 120 4 120 10 0 6 -47 10 -120 10 -73 0 -120 -4 -120 -10z"/> <path d="M626 631 c-11 -18 6 -42 28 -39 29 4 29 42 -1 46 -11 2 -24 -1 -27 -7z m34 -11 c0 -5 -4 -10 -10 -10 -5 0 -10 5 -10 10 0 6 5 10 10 10 6 0 10 -4 10 -10z"/> <path d="M700 620 c0 -6 47 -10 120 -10 73 0 120 4 120 10 0 6 -47 10 -120 10 -73 0 -120 -4 -120 -10z"/> <path d="M624 559 c-3 -6 1 -18 10 -27 15 -15 17 -15 32 0 19 19 11 38 -16 38 -10 0 -22 -5 -26 -11z m36 -9 c0 -5 -4 -10 -10 -10 -5 0 -10 5 -10 10 0 6 5 10 10 10 6 0 10 -4 10 -10z"/> <path d="M700 550 c0 -6 47 -10 120 -10 73 0 120 4 120 10 0 6 -47 10 -120 10 -73 0 -120 -4 -120 -10z"/> <path d="M1258 755 c-55 -30 -68 -70 -68 -207 0 -153 2 -155 108 -157 82 -2 124 14 145 56 l14 26 18 -27 c47 -72 178 -74 216 -4 l12 22 21 -26 c12 -14 31 -31 43 -37 29 -15 146 -14 161 1 9 9 15 9 24 0 17 -17 42 -15 61 6 13 14 17 38 17 90 l0 72 29 0 c27 0 29 -3 33 -51 4 -42 12 -57 42 -87 34 -35 40 -37 111 -40 60 -3 80 -1 94 12 17 15 19 15 32 0 10 -13 27 -15 82 -12 61 3 72 7 93 31 32 37 32 86 0 116 -24 22 -24 23 -5 42 25 25 25 65 -1 79 -36 19 -119 9 -151 -18 l-29 -24 0 60 c0 61 -17 92 -53 92 -22 0 -47 -38 -47 -72 0 -26 -3 -28 -37 -28 -21 0 -52 -9 -69 -19 -31 -19 -32 -19 -48 0 -30 35 -129 17 -155 -28 -9 -16 -12 -15 -40 11 -39 38 -130 49 -161 21 -22 -20 -26 -55 -9 -72 11 -11 5 -33 -11 -33 -4 0 -11 10 -14 23 -14 51 -75 97 -129 97 -51 0 -90 -22 -117 -65 -12 -19 -25 -33 -30 -30 -4 3 -5 33 -3 68 5 62 5 63 -31 95 -29 25 -45 32 -79 32 -23 -1 -54 -7 -69 -15z m136 -41 c31 -32 34 -76 7 -103 -19 -19 -19 -20 3 -35 26 -17 37 -55 27 -95 -9 -32 -62 -61 -113 -61 -31 0 -38 4 -38 20 0 17 7 20 39 20 45 0 71 20 71 55 0 32 -41 59 -75 51 -20 -5 -25 -3 -25 14 0 15 7 20 25 20 27 0 65 32 65 54 0 41 -67 61 -102 29 -16 -14 -18 -33 -18 -140 0 -116 -1 -123 -20 -123 -19 0 -20 7 -20 131 l0 131 29 29 c40 40 106 41 145 3z m936 -135 l0 -161 -76 4 c-71 3 -78 6 -105 36 -63 71 -22 182 68 182 44 0 57 -7 61 -33 3 -15 -1 -17 -20 -11 -56 18 -98 -9 -98 -63 0 -48 29 -73 85 -73 l45 0 0 140 c0 133 1 140 20 140 19 0 20 -7 20 -161z m-990 77 c0 -13 -20 -26 -41 -26 -14 0 -11 28 4 33 23 10 37 7 37 -7z m311 -36 c83 -60 37 -200 -66 -200 -52 0 -89 31 -108 92 -9 28 12 86 40 108 34 26 96 27 134 0z m228 5 c34 -17 41 -38 41 -132 l0 -73 -60 0 c-96 0 -142 36 -120 95 17 44 120 60 120 17 0 -13 -9 -17 -37 -17 -34 0 -38 -3 -38 -25 0 -23 4 -25 48 -28 l47 -3 0 55 c0 70 -15 86 -81 86 -42 0 -49 3 -49 20 0 17 7 20 50 20 28 0 64 -7 79 -15z m217 -5 c0 -16 -7 -20 -36 -20 -52 0 -60 -13 -60 -102 0 -71 -2 -78 -20 -78 -18 0 -20 7 -20 85 0 78 2 88 25 110 32 33 111 37 111 5z m444 0 c0 -16 -8 -19 -57 -22 -76 -4 -77 -25 -3 -53 54 -21 55 -22 55 -60 0 -49 -25 -65 -102 -65 -46 0 -53 3 -53 20 0 16 8 19 57 22 45 2 59 7 61 20 2 12 -8 20 -37 29 -53 16 -85 50 -77 82 7 31 39 45 104 46 45 1 52 -2 52 -19z m-282 -92 c3 -32 0 -38 -17 -38 -36 0 -51 12 -51 39 0 35 8 43 40 39 21 -3 25 -9 28 -40z m142 -27 c0 -3 -9 -12 -20 -19 -19 -11 -20 -10 -20 24 0 36 0 37 20 19 11 -10 20 -21 20 -24z m-1040 15 c0 -15 -21 -26 -51 -26 -12 0 -19 7 -19 20 0 16 7 20 35 20 23 0 35 -5 35 -14z"/> <path d="M1570 602 c-50 -16 -69 -92 -32 -125 25 -22 75 -21 95 1 45 49 -3 143 -63 124z m48 -69 c-3 -35 -6 -38 -33 -38 -24 0 -31 5 -33 23 -6 38 5 52 38 52 30 0 31 -2 28 -37z"/> </g> </svg> 